<svg
        id="visual"
        viewBox="0 0 900 600"
        width="900"
        height="600"
        xmlns="http://www.w3.org/2000/svg"
        xmlnsXlink="http://www.w3.org/1999/xlink"
        version="1.1"
        preserveAspectRatio="xMidYMax slice"
      >
        <path
          id="p1"
          d="M0 253L21.5 262C43 271 86 289 128.8 293.2C171.7 297.3 214.3 287.7 257.2 297.5C300 307.3 343 336.7 385.8 344.3C428.7 352 471.3 338 514.2 318.8C557 299.7 600 275.3 642.8 283.5C685.7 291.7 728.3 332.3 771.2 345.7C814 359 857 345 878.5 338L900 331L900 601L878.5 601C857 601 814 601 771.2 601C728.3 601 685.7 601 642.8 601C600 601 557 601 514.2 601C471.3 601 428.7 601 385.8 601C343 601 300 601 257.2 601C214.3 601 171.7 601 128.8 601C86 601 43 601 21.5 601L0 601Z"
          fill="#fdf1f1"
        ></path>
        <animate
          xlinkHref="#p1"
          attributeName="d"
          attributeType="XML"
          values="M0 253L21.5 262C43 271 86 289 128.8 293.2C171.7 297.3 214.3 287.7 257.2 297.5C300 307.3 343 336.7 385.8 344.3C428.7 352 471.3 338 514.2 318.8C557 299.7 600 275.3 642.8 283.5C685.7 291.7 728.3 332.3 771.2 345.7C814 359 857 345 878.5 338L900 331L900 601L878.5 601C857 601 814 601 771.2 601C728.3 601 685.7 601 642.8 601C600 601 557 601 514.2 601C471.3 601 428.7 601 385.8 601C343 601 300 601 257.2 601C214.3 601 171.7 601 128.8 601C86 601 43 601 21.5 601L0 601Z;
          M0 289L21.5 292.3C43 295.7 86 302.3 128.8 304.3C171.7 306.3 214.3 303.7 257.2 310.2C300 316.7 343 332.3 385.8 338.5C428.7 344.7 471.3 341.3 514.2 327.7C557 314 600 290 642.8 286.5C685.7 283 728.3 300 771.2 316.5C814 333 857 349 878.5 357L900 365L900 601L878.5 601C857 601 814 601 771.2 601C728.3 601 685.7 601 642.8 601C600 601 557 601 514.2 601C471.3 601 428.7 601 385.8 601C343 601 300 601 257.2 601C214.3 601 171.7 601 128.8 601C86 601 43 601 21.5 601L0 601Z;
          M0 253L21.5 262C43 271 86 289 128.8 293.2C171.7 297.3 214.3 287.7 257.2 297.5C300 307.3 343 336.7 385.8 344.3C428.7 352 471.3 338 514.2 318.8C557 299.7 600 275.3 642.8 283.5C685.7 291.7 728.3 332.3 771.2 345.7C814 359 857 345 878.5 338L900 331L900 601L878.5 601C857 601 814 601 771.2 601C728.3 601 685.7 601 642.8 601C600 601 557 601 514.2 601C471.3 601 428.7 601 385.8 601C343 601 300 601 257.2 601C214.3 601 171.7 601 128.8 601C86 601 43 601 21.5 601L0 601Z
          "
          dur="10s"
          fill="freeze"
          repeatCount="indefinite"
        />
        <path
          id="p2"
          d="M0 348L21.5 357.8C43 367.7 86 387.3 128.8 381.2C171.7 375 214.3 343 257.2 331C300 319 343 327 385.8 329.3C428.7 331.7 471.3 328.3 514.2 336.3C557 344.3 600 363.7 642.8 379.7C685.7 395.7 728.3 408.3 771.2 397.5C814 386.7 857 352.3 878.5 335.2L900 318L900 601L878.5 601C857 601 814 601 771.2 601C728.3 601 685.7 601 642.8 601C600 601 557 601 514.2 601C471.3 601 428.7 601 385.8 601C343 601 300 601 257.2 601C214.3 601 171.7 601 128.8 601C86 601 43 601 21.5 601L0 601Z"
          fill="#ffd5ce"
        ></path>
        <animate
          xlinkHref="#p2"
          attributeName="d"
          attributeType="XML"
          values="M0 348L21.5 357.8C43 367.7 86 387.3 128.8 381.2C171.7 375 214.3 343 257.2 331C300 319 343 327 385.8 329.3C428.7 331.7 471.3 328.3 514.2 336.3C557 344.3 600 363.7 642.8 379.7C685.7 395.7 728.3 408.3 771.2 397.5C814 386.7 857 352.3 878.5 335.2L900 318L900 601L878.5 601C857 601 814 601 771.2 601C728.3 601 685.7 601 642.8 601C600 601 557 601 514.2 601C471.3 601 428.7 601 385.8 601C343 601 300 601 257.2 601C214.3 601 171.7 601 128.8 601C86 601 43 601 21.5 601L0 601Z;
          M0 360L21.5 354.8C43 349.7 86 339.3 128.8 338.5C171.7 337.7 214.3 346.3 257.2 362C300 377.7 343 400.3 385.8 407.7C428.7 415 471.3 407 514.2 394C557 381 600 363 642.8 362C685.7 361 728.3 377 771.2 373C814 369 857 345 878.5 333L900 321L900 601L878.5 601C857 601 814 601 771.2 601C728.3 601 685.7 601 642.8 601C600 601 557 601 514.2 601C471.3 601 428.7 601 385.8 601C343 601 300 601 257.2 601C214.3 601 171.7 601 128.8 601C86 601 43 601 21.5 601L0 601Z;
          M0 348L21.5 357.8C43 367.7 86 387.3 128.8 381.2C171.7 375 214.3 343 257.2 331C300 319 343 327 385.8 329.3C428.7 331.7 471.3 328.3 514.2 336.3C557 344.3 600 363.7 642.8 379.7C685.7 395.7 728.3 408.3 771.2 397.5C814 386.7 857 352.3 878.5 335.2L900 318L900 601L878.5 601C857 601 814 601 771.2 601C728.3 601 685.7 601 642.8 601C600 601 557 601 514.2 601C471.3 601 428.7 601 385.8 601C343 601 300 601 257.2 601C214.3 601 171.7 601 128.8 601C86 601 43 601 21.5 601L0 601Z
          "
          dur="10s"
          fill="freeze"
          repeatCount="indefinite"
        />
        <path
          id="p3"
          d="M0 458L21.5 451.7C43 445.3 86 432.7 128.8 433.2C171.7 433.7 214.3 447.3 257.2 450C300 452.7 343 444.3 385.8 443.7C428.7 443 471.3 450 514.2 446.8C557 443.7 600 430.3 642.8 426.7C685.7 423 728.3 429 771.2 425.5C814 422 857 409 878.5 402.5L900 396L900 601L878.5 601C857 601 814 601 771.2 601C728.3 601 685.7 601 642.8 601C600 601 557 601 514.2 601C471.3 601 428.7 601 385.8 601C343 601 300 601 257.2 601C214.3 601 171.7 601 128.8 601C86 601 43 601 21.5 601L0 601Z"
          fill="#ffbba4"
        ></path>
        <animate
          xlinkHref="#p3"
          attributeName="d"
          attributeType="XML"
          values="M0 458L21.5 451.7C43 445.3 86 432.7 128.8 433.2C171.7 433.7 214.3 447.3 257.2 450C300 452.7 343 444.3 385.8 443.7C428.7 443 471.3 450 514.2 446.8C557 443.7 600 430.3 642.8 426.7C685.7 423 728.3 429 771.2 425.5C814 422 857 409 878.5 402.5L900 396L900 601L878.5 601C857 601 814 601 771.2 601C728.3 601 685.7 601 642.8 601C600 601 557 601 514.2 601C471.3 601 428.7 601 385.8 601C343 601 300 601 257.2 601C214.3 601 171.7 601 128.8 601C86 601 43 601 21.5 601L0 601Z;
          M0 438L21.5 434.3C43 430.7 86 423.3 128.8 425.7C171.7 428 214.3 440 257.2 439.2C300 438.3 343 424.7 385.8 424.7C428.7 424.7 471.3 438.3 514.2 443.5C557 448.7 600 445.3 642.8 442.8C685.7 440.3 728.3 438.7 771.2 438.2C814 437.7 857 438.3 878.5 438.7L900 439L900 601L878.5 601C857 601 814 601 771.2 601C728.3 601 685.7 601 642.8 601C600 601 557 601 514.2 601C471.3 601 428.7 601 385.8 601C343 601 300 601 257.2 601C214.3 601 171.7 601 128.8 601C86 601 43 601 21.5 601L0 601Z;
          M0 458L21.5 451.7C43 445.3 86 432.7 128.8 433.2C171.7 433.7 214.3 447.3 257.2 450C300 452.7 343 444.3 385.8 443.7C428.7 443 471.3 450 514.2 446.8C557 443.7 600 430.3 642.8 426.7C685.7 423 728.3 429 771.2 425.5C814 422 857 409 878.5 402.5L900 396L900 601L878.5 601C857 601 814 601 771.2 601C728.3 601 685.7 601 642.8 601C600 601 557 601 514.2 601C471.3 601 428.7 601 385.8 601C343 601 300 601 257.2 601C214.3 601 171.7 601 128.8 601C86 601 43 601 21.5 601L0 601Z
          "
          dur="10s"
          fill="freeze"
          repeatCount="indefinite"
        />
        <path
          id="p4"
          d="M0 440L21.5 443.7C43 447.3 86 454.7 128.8 453.5C171.7 452.3 214.3 442.7 257.2 444.2C300 445.7 343 458.3 385.8 459.8C428.7 461.3 471.3 451.7 514.2 452.8C557 454 600 466 642.8 478C685.7 490 728.3 502 771.2 503.7C814 505.3 857 496.7 878.5 492.3L900 488L900 601L878.5 601C857 601 814 601 771.2 601C728.3 601 685.7 601 642.8 601C600 601 557 601 514.2 601C471.3 601 428.7 601 385.8 601C343 601 300 601 257.2 601C214.3 601 171.7 601 128.8 601C86 601 43 601 21.5 601L0 601Z"
          fill="#faa574"
        ></path>
        <animate
          xlinkHref="#p4"
          attributeName="d"
          attributeType="XML"
          values="M0 440L21.5 443.7C43 447.3 86 454.7 128.8 453.5C171.7 452.3 214.3 442.7 257.2 444.2C300 445.7 343 458.3 385.8 459.8C428.7 461.3 471.3 451.7 514.2 452.8C557 454 600 466 642.8 478C685.7 490 728.3 502 771.2 503.7C814 505.3 857 496.7 878.5 492.3L900 488L900 601L878.5 601C857 601 814 601 771.2 601C728.3 601 685.7 601 642.8 601C600 601 557 601 514.2 601C471.3 601 428.7 601 385.8 601C343 601 300 601 257.2 601C214.3 601 171.7 601 128.8 601C86 601 43 601 21.5 601L0 601Z;
          M0 481L21.5 476.3C43 471.7 86 462.3 128.8 461.2C171.7 460 214.3 467 257.2 475.3C300 483.7 343 493.3 385.8 488C428.7 482.7 471.3 462.3 514.2 459C557 455.7 600 469.3 642.8 470.8C685.7 472.3 728.3 461.7 771.2 455.8C814 450 857 449 878.5 448.5L900 448L900 601L878.5 601C857 601 814 601 771.2 601C728.3 601 685.7 601 642.8 601C600 601 557 601 514.2 601C471.3 601 428.7 601 385.8 601C343 601 300 601 257.2 601C214.3 601 171.7 601 128.8 601C86 601 43 601 21.5 601L0 601Z;
          M0 440L21.5 443.7C43 447.3 86 454.7 128.8 453.5C171.7 452.3 214.3 442.7 257.2 444.2C300 445.7 343 458.3 385.8 459.8C428.7 461.3 471.3 451.7 514.2 452.8C557 454 600 466 642.8 478C685.7 490 728.3 502 771.2 503.7C814 505.3 857 496.7 878.5 492.3L900 488L900 601L878.5 601C857 601 814 601 771.2 601C728.3 601 685.7 601 642.8 601C600 601 557 601 514.2 601C471.3 601 428.7 601 385.8 601C343 601 300 601 257.2 601C214.3 601 171.7 601 128.8 601C86 601 43 601 21.5 601L0 601Z
          "
          dur="10s"
          fill="freeze"
          repeatCount="indefinite"
        />
        <path
          id="p5"
          d="M0 562L21.5 551.7C43 541.3 86 520.7 128.8 515C171.7 509.3 214.3 518.7 257.2 520.8C300 523 343 518 385.8 521.7C428.7 525.3 471.3 537.7 514.2 545.2C557 552.7 600 555.3 642.8 556.8C685.7 558.3 728.3 558.7 771.2 548C814 537.3 857 515.7 878.5 504.8L900 494L900 601L878.5 601C857 601 814 601 771.2 601C728.3 601 685.7 601 642.8 601C600 601 557 601 514.2 601C471.3 601 428.7 601 385.8 601C343 601 300 601 257.2 601C214.3 601 171.7 601 128.8 601C86 601 43 601 21.5 601L0 601Z"
          fill="#ea953d"
        ></path>
        <animate
          xlinkHref="#p5"
          attributeName="d"
          attributeType="XML"
          values="M0 562L21.5 551.7C43 541.3 86 520.7 128.8 515C171.7 509.3 214.3 518.7 257.2 520.8C300 523 343 518 385.8 521.7C428.7 525.3 471.3 537.7 514.2 545.2C557 552.7 600 555.3 642.8 556.8C685.7 558.3 728.3 558.7 771.2 548C814 537.3 857 515.7 878.5 504.8L900 494L900 601L878.5 601C857 601 814 601 771.2 601C728.3 601 685.7 601 642.8 601C600 601 557 601 514.2 601C471.3 601 428.7 601 385.8 601C343 601 300 601 257.2 601C214.3 601 171.7 601 128.8 601C86 601 43 601 21.5 601L0 601Z;
          M0 554L21.5 547C43 540 86 526 128.8 522C171.7 518 214.3 524 257.2 522.7C300 521.3 343 512.7 385.8 513.3C428.7 514 471.3 524 514.2 526.5C557 529 600 524 642.8 520.2C685.7 516.3 728.3 513.7 771.2 512.8C814 512 857 513 878.5 513.5L900 514L900 601L878.5 601C857 601 814 601 771.2 601C728.3 601 685.7 601 642.8 601C600 601 557 601 514.2 601C471.3 601 428.7 601 385.8 601C343 601 300 601 257.2 601C214.3 601 171.7 601 128.8 601C86 601 43 601 21.5 601L0 601Z;
          M0 562L21.5 551.7C43 541.3 86 520.7 128.8 515C171.7 509.3 214.3 518.7 257.2 520.8C300 523 343 518 385.8 521.7C428.7 525.3 471.3 537.7 514.2 545.2C557 552.7 600 555.3 642.8 556.8C685.7 558.3 728.3 558.7 771.2 548C814 537.3 857 515.7 878.5 504.8L900 494L900 601L878.5 601C857 601 814 601 771.2 601C728.3 601 685.7 601 642.8 601C600 601 557 601 514.2 601C471.3 601 428.7 601 385.8 601C343 601 300 601 257.2 601C214.3 601 171.7 601 128.8 601C86 601 43 601 21.5 601L0 601Z
          "
          dur="10s"
          fill="freeze"
          repeatCount="indefinite"
        />
      </svg>